<?xml version="1.0" encoding="iso-8859-1"?>
<!-- Generator: Adobe Illustrator 19.0.0, SVG Export Plug-In . SVG Version: 6.00 Build 0)  -->
<svg version="1.1" id="Layer_1" xmlns="http://www.w3.org/2000/svg" xmlns:xlink="http://www.w3.org/1999/xlink" x="0px" y="0px"
	 viewBox="0 0 512 512" style="enable-background:new 0 0 512 512;" xml:space="preserve">
<path style="fill:#E2E5E7;" d="M128,0c-17.6,0-32,14.4-32,32v448c0,17.6,14.4,32,32,32h320c17.6,0,32-14.4,32-32V128L352,0H128z"/>
<path style="fill:#B0B7BD;" d="M384,128h96L352,0v96C352,113.6,366.4,128,384,128z"/>
<polygon style="fill:#CAD1D8;" points="480,224 384,128 480,128 "/>
<path style="fill:#84BD5A;" d="M416,416c0,8.8-7.2,16-16,16H48c-8.8,0-16-7.2-16-16V256c0-8.8,7.2-16,16-16h352c8.8,0,16,7.2,16,16
	V416z"/>
<g>
	<path style="fill:#FFFFFF;" d="M90.592,339.088c0-24.688,15.472-45.904,44.912-45.904c11.12,0,19.952,3.312,29.296,11.376
		c3.456,3.184,3.824,8.832,0.368,12.4c-3.456,3.056-8.704,2.688-11.76-0.368c-5.248-5.504-10.624-7.024-17.904-7.024
		c-19.696,0-29.168,13.936-29.168,29.536c0,15.872,9.328,30.464,29.168,30.464c7.28,0,14.064-2.96,19.952-8.192
		c3.968-3.072,9.472-1.552,11.76,1.536c2.048,2.816,3.072,7.536-1.408,12.016c-8.96,8.336-19.696,9.984-30.32,9.984
		C104.544,384.912,90.592,363.792,90.592,339.088z"/>
	<path style="fill:#FFFFFF;" d="M195.056,384c-4.224,0-8.832-2.304-8.832-7.92v-72.672c0-4.592,4.608-7.936,8.832-7.936h29.296
		c58.464,0,57.184,88.528,1.152,88.528H195.056z M203.12,311.088V368.4h21.232c34.544,0,36.08-57.312,0-57.312H203.12z"/>
	<path style="fill:#FFFFFF;" d="M302.592,375.68c0,11.12-17.008,11.52-17.008,0.256V303.28c0-4.464,3.456-7.808,7.664-7.808h34.032
		c32.496,0,39.152,43.504,12.032,54.368l17.008,20.736c6.656,9.856-6.656,19.312-14.336,9.6l-19.312-27.648h-20.096v23.152H302.592z
		 M302.592,337.824h24.688c16.64,0,17.664-26.864,0-26.864h-24.688V337.824z"/>
</g>
<path style="fill:#CAD1D8;" d="M400,432H96v16h304c8.8,0,16-7.2,16-16v-16C416,424.8,408.8,432,400,432z"/>
<g>
</g>
<g>
</g>
<g>
</g>
<g>
</g>
<g>
</g>
<g>
</g>
<g>
</g>
<g>
</g>
<g>
</g>
<g>
</g>
<g>
</g>
<g>
</g>
<g>
</g>
<g>
</g>
<g>
</g>
</svg>
