<?xml version="1.0" encoding="iso-8859-1"?>
<!-- Generator: Adobe Illustrator 19.0.0, SVG Export Plug-In . SVG Version: 6.00 Build 0)  -->
<svg version="1.1" id="Layer_1" xmlns="http://www.w3.org/2000/svg" xmlns:xlink="http://www.w3.org/1999/xlink" x="0px" y="0px"
	 viewBox="0 0 512 512" style="enable-background:new 0 0 512 512;" xml:space="preserve">
<path style="fill:#E2E5E7;" d="M128,0c-17.6,0-32,14.4-32,32v448c0,17.6,14.4,32,32,32h320c17.6,0,32-14.4,32-32V128L352,0H128z"/>
<path style="fill:#B0B7BD;" d="M384,128h96L352,0v96C352,113.6,366.4,128,384,128z"/>
<polygon style="fill:#CAD1D8;" points="480,224 384,128 480,128 "/>
<path style="fill:#F7B84E;" d="M416,416c0,8.8-7.2,16-16,16H48c-8.8,0-16-7.2-16-16V256c0-8.8,7.2-16,16-16h352c8.8,0,16,7.2,16,16
	V416z"/>
<g>
	<path style="fill:#FFFFFF;" d="M116.608,384c-4.48,0-7.936-3.456-7.936-7.936v-72.656c0-4.608,3.456-7.936,7.936-7.936h45.92
		c11.776,0,11.52,16.624,0,16.624h-36.832v19.2h32.24c11.376,0,11.376,16.768,0,16.768h-32.24v19.184h39.024
		c11.648,0,12.528,16.752,0,16.752H116.608z"/>
	<path style="fill:#FFFFFF;" d="M190.48,303.152c0-4.224,3.328-8.848,8.704-8.848h29.552c16.64,0,31.616,11.136,31.616,32.496
		c0,20.224-14.976,31.472-31.616,31.472h-21.36v16.896c0,5.648-3.584,8.832-8.192,8.832c-4.224,0-8.704-3.184-8.704-8.832V303.152z
		 M207.376,310.432v31.856h21.36c8.576,0,15.36-7.552,15.36-15.488c0-8.96-6.784-16.368-15.36-16.368L207.376,310.432
		L207.376,310.432z"/>
	<path style="fill:#FFFFFF;" d="M274.8,314.656c2.944-24.816,40.416-29.28,58.08-15.712c8.704,7.024-0.512,18.16-8.192,12.528
		c-9.472-6.016-30.96-8.832-33.648,4.464c-3.456,20.992,52.192,8.976,51.296,42.992c-0.896,32.496-47.968,33.264-65.632,18.672
		c-4.224-3.44-4.096-9.056-1.792-12.528c3.328-3.312,7.024-4.464,11.392-0.896c10.48,7.168,37.488,12.544,39.408-5.648
		C324.048,339.616,270.832,351.008,274.8,314.656z"/>
</g>
<path style="fill:#CAD1D8;" d="M400,432H96v16h304c8.8,0,16-7.2,16-16v-16C416,424.8,408.8,432,400,432z"/>
<g>
</g>
<g>
</g>
<g>
</g>
<g>
</g>
<g>
</g>
<g>
</g>
<g>
</g>
<g>
</g>
<g>
</g>
<g>
</g>
<g>
</g>
<g>
</g>
<g>
</g>
<g>
</g>
<g>
</g>
</svg>
