<?xml version="1.0" encoding="iso-8859-1"?>
<!-- Generator: Adobe Illustrator 19.0.0, SVG Export Plug-In . SVG Version: 6.00 Build 0)  -->
<svg version="1.1" id="Layer_1" xmlns="http://www.w3.org/2000/svg" xmlns:xlink="http://www.w3.org/1999/xlink" x="0px" y="0px"
	 viewBox="0 0 512 512" style="enable-background:new 0 0 512 512;" xml:space="preserve">
<path style="fill:#E2E5E7;" d="M128,0c-17.6,0-32,14.4-32,32v448c0,17.6,14.4,32,32,32h320c17.6,0,32-14.4,32-32V128L352,0H128z"/>
<path style="fill:#B0B7BD;" d="M384,128h96L352,0v96C352,113.6,366.4,128,384,128z"/>
<polygon style="fill:#CAD1D8;" points="480,224 384,128 480,128 "/>
<path style="fill:#F15642;" d="M416,416c0,8.8-7.2,16-16,16H48c-8.8,0-16-7.2-16-16V256c0-8.8,7.2-16,16-16h352c8.8,0,16,7.2,16,16
	V416z"/>
<g>
	<path style="fill:#FFFFFF;" d="M124.08,312.112v20.336h32.624c4.608,0,9.2,4.608,9.2,9.072c0,4.224-4.592,7.68-9.2,7.68H124.08
		v26.864c0,4.48-3.2,7.92-7.664,7.92c-5.632,0-9.088-3.44-9.088-7.92v-72.672c0-4.592,3.472-7.936,9.088-7.936h44.912
		c5.632,0,8.96,3.344,8.96,7.936c0,4.096-3.328,8.704-8.96,8.704H124.08V312.112z"/>
	<path style="fill:#FFFFFF;" d="M185.824,303.152c0-4.224,3.584-7.808,8.064-7.808c4.096,0,7.552,3.6,7.552,7.808v64.096h34.8
		c12.528,0,12.8,16.752,0,16.752h-42.336c-4.48,0-8.064-3.184-8.064-7.792v-73.056H185.824z"/>
	<path style="fill:#FFFFFF;" d="M262.224,384c-4.096-2.304-6.656-6.912-4.096-12.288l36.704-71.744
		c3.456-6.784,12.672-7.04,15.872,0l36.064,71.744c5.248,9.984-10.24,17.904-14.832,7.936l-5.648-11.248h-47.2l-5.488,11.264
		C271.552,384,266.816,384.912,262.224,384z M317.216,351.52l-14.448-31.616L287.04,351.52H317.216z"/>
</g>
<path style="fill:#CAD1D8;" d="M400,432H96v16h304c8.8,0,16-7.2,16-16v-16C416,424.8,408.8,432,400,432z"/>
<g>
</g>
<g>
</g>
<g>
</g>
<g>
</g>
<g>
</g>
<g>
</g>
<g>
</g>
<g>
</g>
<g>
</g>
<g>
</g>
<g>
</g>
<g>
</g>
<g>
</g>
<g>
</g>
<g>
</g>
</svg>
