<?xml version="1.0" encoding="iso-8859-1"?>
<!-- Generator: Adobe Illustrator 19.0.0, SVG Export Plug-In . SVG Version: 6.00 Build 0)  -->
<svg version="1.1" id="Layer_1" xmlns="http://www.w3.org/2000/svg" xmlns:xlink="http://www.w3.org/1999/xlink" x="0px" y="0px"
	 viewBox="0 0 512 512" style="enable-background:new 0 0 512 512;" xml:space="preserve">
<path style="fill:#E2E5E7;" d="M128,0c-17.6,0-32,14.4-32,32v448c0,17.6,14.4,32,32,32h320c17.6,0,32-14.4,32-32V128L352,0H128z"/>
<path style="fill:#B0B7BD;" d="M384,128h96L352,0v96C352,113.6,366.4,128,384,128z"/>
<polygon style="fill:#CAD1D8;" points="480,224 384,128 480,128 "/>
<path style="fill:#F7B84E;" d="M416,416c0,8.8-7.2,16-16,16H48c-8.8,0-16-7.2-16-16V256c0-8.8,7.2-16,16-16h352c8.8,0,16,7.2,16,16
	V416z"/>
<g>
	<path style="fill:#FFFFFF;" d="M133.312,312.096v20.336h32.624c4.608,0,9.216,4.608,9.216,9.088c0,4.224-4.608,7.664-9.216,7.664
		h-32.624v26.864c0,4.48-3.184,7.936-7.664,7.936c-5.632,0-9.072-3.456-9.072-7.936v-72.656c0-4.608,3.456-7.936,9.072-7.936h44.912
		c5.632,0,8.96,3.328,8.96,7.936c0,4.096-3.328,8.688-8.96,8.688h-37.248V312.096z"/>
	<path style="fill:#FFFFFF;" d="M195.072,303.152c0-4.224,3.584-7.808,8.064-7.808c4.096,0,7.552,3.6,7.552,7.808v64.096h34.8
		c12.528,0,12.8,16.752,0,16.752h-42.336c-4.48,0-8.064-3.184-8.064-7.808v-73.04H195.072z"/>
	<path style="fill:#FFFFFF;" d="M286.88,378.256l-33.776-70.752c-4.992-10.112,10.112-18.416,15.728-7.808l11.392,25.712
		l14.704,33.776l14.448-33.776l11.392-25.712c5.12-9.712,19.952-3.584,15.616,7.04l-32.624,71.52
		C300.816,386.32,291.728,388.224,286.88,378.256z"/>
</g>
<path style="fill:#CAD1D8;" d="M400,432H96v16h304c8.8,0,16-7.2,16-16v-16C416,424.8,408.8,432,400,432z"/>
<g>
</g>
<g>
</g>
<g>
</g>
<g>
</g>
<g>
</g>
<g>
</g>
<g>
</g>
<g>
</g>
<g>
</g>
<g>
</g>
<g>
</g>
<g>
</g>
<g>
</g>
<g>
</g>
<g>
</g>
</svg>
