<?xml version="1.0" encoding="iso-8859-1"?>
<!-- Generator: Adobe Illustrator 19.0.0, SVG Export Plug-In . SVG Version: 6.00 Build 0)  -->
<svg version="1.1" id="Layer_1" xmlns="http://www.w3.org/2000/svg" xmlns:xlink="http://www.w3.org/1999/xlink" x="0px" y="0px"
	 viewBox="0 0 512 512" style="enable-background:new 0 0 512 512;" xml:space="preserve">
<path style="fill:#E2E5E7;" d="M128,0c-17.6,0-32,14.4-32,32v448c0,17.6,14.4,32,32,32h320c17.6,0,32-14.4,32-32V128L352,0H128z"/>
<path style="fill:#B0B7BD;" d="M384,128h96L352,0v96C352,113.6,366.4,128,384,128z"/>
<polygon style="fill:#CAD1D8;" points="480,224 384,128 480,128 "/>
<path style="fill:#50BEE8;" d="M416,416c0,8.8-7.2,16-16,16H48c-8.8,0-16-7.2-16-16V256c0-8.8,7.2-16,16-16h352c8.8,0,16,7.2,16,16
	V416z"/>
<g>
	<path style="fill:#FFFFFF;" d="M119.52,303.152c0-10.496,16.896-10.88,16.896,0v73.024c0,10.624-16.896,10.88-16.896,0
		C119.52,376.176,119.52,303.152,119.52,303.152z"/>
	<path style="fill:#FFFFFF;" d="M156.624,314.656c2.944-24.816,40.416-29.28,58.08-15.712c8.704,7.024-0.512,18.16-8.192,12.528
		c-9.472-6.016-30.96-8.832-33.648,4.464c-3.456,20.992,52.192,8.976,51.296,42.992c-0.896,32.496-47.968,33.264-65.632,18.672
		c-4.24-3.44-4.096-9.056-1.792-12.528c3.328-3.312,7.024-4.464,11.392-0.896c10.48,7.168,37.488,12.544,39.392-5.648
		C205.872,339.616,152.656,351.008,156.624,314.656z"/>
	<path style="fill:#FFFFFF;" d="M285.824,385.28c-23.664,1.024-48.24-14.72-48.24-46.064c0-31.472,24.56-46.944,48.24-46.944
		c22.384,1.136,45.792,16.624,45.792,46.944C331.632,369.552,308.224,385.28,285.824,385.28z M284.416,308.912
		c-14.336,0-29.936,10.112-29.936,30.32c0,20.096,15.616,30.336,29.936,30.336c14.72,0,30.448-10.24,30.448-30.336
		C314.88,319.008,299.136,308.912,284.416,308.912z"/>
</g>
<path style="fill:#CAD1D8;" d="M400,432H96v16h304c8.8,0,16-7.2,16-16v-16C416,424.8,408.8,432,400,432z"/>
<g>
</g>
<g>
</g>
<g>
</g>
<g>
</g>
<g>
</g>
<g>
</g>
<g>
</g>
<g>
</g>
<g>
</g>
<g>
</g>
<g>
</g>
<g>
</g>
<g>
</g>
<g>
</g>
<g>
</g>
</svg>
