<?xml version="1.0" encoding="iso-8859-1"?>
<!-- Generator: Adobe Illustrator 19.0.0, SVG Export Plug-In . SVG Version: 6.00 Build 0)  -->
<svg version="1.1" id="Layer_1" xmlns="http://www.w3.org/2000/svg" xmlns:xlink="http://www.w3.org/1999/xlink" x="0px" y="0px"
	 viewBox="0 0 512 512" style="enable-background:new 0 0 512 512;" xml:space="preserve">
<path style="fill:#E2E5E7;" d="M128,0c-17.6,0-32,14.4-32,32v448c0,17.6,14.4,32,32,32h320c17.6,0,32-14.4,32-32V128L352,0H128z"/>
<path style="fill:#B0B7BD;" d="M384,128h96L352,0v96C352,113.6,366.4,128,384,128z"/>
<polygon style="fill:#CAD1D8;" points="480,224 384,128 480,128 "/>
<path style="fill:#576D7E;" d="M416,416c0,8.8-7.2,16-16,16H48c-8.8,0-16-7.2-16-16V256c0-8.8,7.2-16,16-16h352c8.8,0,16,7.2,16,16
	V416z"/>
<g>
	<path style="fill:#FFFFFF;" d="M193.744,303.152c0-10.752,16.896-10.752,16.896,0v50.528c0,20.08-9.6,32.24-31.712,32.24
		c-10.88,0-19.968-2.96-27.888-13.168c-6.528-7.808,5.744-19.056,12.4-10.88c5.376,6.656,11.12,8.192,16.752,7.92
		c7.168-0.256,13.44-3.456,13.568-16.112v-50.528H193.744z"/>
	<path style="fill:#FFFFFF;" d="M230.272,314.656c2.944-24.816,40.416-29.28,58.08-15.712c8.704,7.024-0.512,18.16-8.192,12.528
		c-9.472-6.016-30.96-8.832-33.648,4.464c-3.456,20.992,52.192,8.976,51.296,42.992c-0.896,32.496-47.968,33.264-65.632,18.672
		c-4.224-3.44-4.096-9.056-1.792-12.528c3.328-3.312,7.024-4.464,11.392-0.896c10.48,7.168,37.488,12.544,39.408-5.648
		C279.52,339.616,226.304,351.008,230.272,314.656z"/>
</g>
<path style="fill:#CAD1D8;" d="M400,432H96v16h304c8.8,0,16-7.2,16-16v-16C416,424.8,408.8,432,400,432z"/>
<g>
</g>
<g>
</g>
<g>
</g>
<g>
</g>
<g>
</g>
<g>
</g>
<g>
</g>
<g>
</g>
<g>
</g>
<g>
</g>
<g>
</g>
<g>
</g>
<g>
</g>
<g>
</g>
<g>
</g>
</svg>
