<?xml version="1.0" encoding="iso-8859-1"?>
<!-- Generator: Adobe Illustrator 19.0.0, SVG Export Plug-In . SVG Version: 6.00 Build 0)  -->
<svg version="1.1" id="Layer_1" xmlns="http://www.w3.org/2000/svg" xmlns:xlink="http://www.w3.org/1999/xlink" x="0px" y="0px"
	 viewBox="0 0 512 512" style="enable-background:new 0 0 512 512;" xml:space="preserve">
<path style="fill:#E2E5E7;" d="M128,0c-17.6,0-32,14.4-32,32v448c0,17.6,14.4,32,32,32h320c17.6,0,32-14.4,32-32V128L352,0H128z"/>
<path style="fill:#B0B7BD;" d="M384,128h96L352,0v96C352,113.6,366.4,128,384,128z"/>
<polygon style="fill:#CAD1D8;" points="480,224 384,128 480,128 "/>
<path style="fill:#A066AA;" d="M416,416c0,8.8-7.2,16-16,16H48c-8.8,0-16-7.2-16-16V256c0-8.8,7.2-16,16-16h352c8.8,0,16,7.2,16,16
	V416z"/>
<g>
	<path style="fill:#FFFFFF;" d="M107.136,327.84v47.328c0,5.648-4.608,8.832-9.216,8.832c-4.096,0-7.664-3.184-7.664-8.832v-72.016
		c0-6.656,5.632-8.848,7.664-8.848c3.712,0,5.888,2.192,8.064,4.624l28.144,37.984l29.168-39.408
		c4.224-5.232,14.576-3.2,14.576,5.648v72.016c0,5.648-3.568,8.832-7.664,8.832c-4.608,0-8.192-3.184-8.192-8.832V327.84
		l-21.232,26.864c-4.608,5.648-10.352,5.648-14.592,0L107.136,327.84z"/>
	<path style="fill:#FFFFFF;" d="M200.624,303.152c0-10.496,16.896-10.88,16.896,0v73.024c0,10.624-16.896,10.88-16.896,0V303.152z"
		/>
	<path style="fill:#FFFFFF;" d="M248.96,384c-4.224,0-8.832-2.32-8.832-7.936v-72.656c0-4.608,4.608-7.936,8.832-7.936h29.296
		c58.464,0,57.184,88.528,1.152,88.528H248.96z M257.008,311.072v57.312h21.232c34.544,0,36.08-57.312,0-57.312H257.008z"/>
	<path style="fill:#FFFFFF;" d="M339.952,303.152c0-10.496,16.896-10.88,16.896,0v73.024c0,10.624-16.896,10.88-16.896,0V303.152z"
		/>
</g>
<path style="fill:#CAD1D8;" d="M400,432H96v16h304c8.8,0,16-7.2,16-16v-16C416,424.8,408.8,432,400,432z"/>
<g>
</g>
<g>
</g>
<g>
</g>
<g>
</g>
<g>
</g>
<g>
</g>
<g>
</g>
<g>
</g>
<g>
</g>
<g>
</g>
<g>
</g>
<g>
</g>
<g>
</g>
<g>
</g>
<g>
</g>
</svg>
