<?xml version="1.0" encoding="iso-8859-1"?>
<!-- Generator: Adobe Illustrator 19.0.0, SVG Export Plug-In . SVG Version: 6.00 Build 0)  -->
<svg version="1.1" id="Layer_1" xmlns="http://www.w3.org/2000/svg" xmlns:xlink="http://www.w3.org/1999/xlink" x="0px" y="0px"
	 viewBox="0 0 512 512" style="enable-background:new 0 0 512 512;" xml:space="preserve">
<path style="fill:#E2E5E7;" d="M128,0c-17.6,0-32,14.4-32,32v448c0,17.6,14.4,32,32,32h320c17.6,0,32-14.4,32-32V128L352,0H128z"/>
<path style="fill:#B0B7BD;" d="M384,128h96L352,0v96C352,113.6,366.4,128,384,128z"/>
<polygon style="fill:#CAD1D8;" points="480,224 384,128 480,128 "/>
<path style="fill:#576D7E;" d="M416,416c0,8.8-7.2,16-16,16H48c-8.8,0-16-7.2-16-16V256c0-8.8,7.2-16,16-16h352c8.8,0,16,7.2,16,16
	V416z"/>
<g>
	<path style="fill:#FFFFFF;" d="M94.912,375.68c0,11.12-17.024,11.504-17.024,0.256V303.28c0-4.48,3.472-7.808,7.68-7.808H119.6
		c32.48,0,39.136,43.504,12.016,54.368l17.008,20.72c6.656,9.856-6.64,19.312-14.336,9.6l-19.312-27.632H94.912V375.68z
		 M94.912,337.808H119.6c16.624,0,17.664-26.864,0-26.864H94.912V337.808z"/>
	<path style="fill:#FFFFFF;" d="M162.624,384c-4.096-2.32-6.656-6.912-4.096-12.288l36.704-71.76c3.456-6.784,12.672-7.04,15.872,0
		l36.064,71.76c5.248,9.968-10.24,17.904-14.832,7.936l-5.648-11.264h-47.2l-5.504,11.264C171.952,384,167.216,384.912,162.624,384z
		 M217.632,351.504l-14.448-31.6l-15.728,31.6H217.632z"/>
	<path style="fill:#FFFFFF;" d="M341.248,353.424l19.056-52.704c3.84-10.352,19.312-5.504,15.488,5.632l-25.328,68.704
		c-2.32,7.296-4.48,9.472-8.832,9.472c-4.608,0-6.016-2.832-8.576-7.424L310.8,326.576l-21.248,49.76
		c-2.304,5.36-4.464,8.432-9.072,8.432c-4.464,0-6.784-3.072-8.832-8.704l-24.816-69.712c-3.84-11.504,12.4-15.728,15.728-5.632
		l18.944,52.704l22.64-52.704c3.056-7.808,11.12-8.192,14.448-0.368L341.248,353.424z"/>
</g>
<path style="fill:#CAD1D8;" d="M400,432H96v16h304c8.8,0,16-7.2,16-16v-16C416,424.8,408.8,432,400,432z"/>
<g>
</g>
<g>
</g>
<g>
</g>
<g>
</g>
<g>
</g>
<g>
</g>
<g>
</g>
<g>
</g>
<g>
</g>
<g>
</g>
<g>
</g>
<g>
</g>
<g>
</g>
<g>
</g>
<g>
</g>
</svg>
