<?xml version="1.0" encoding="iso-8859-1"?>
<!-- Generator: Adobe Illustrator 19.0.0, SVG Export Plug-In . SVG Version: 6.00 Build 0)  -->
<svg version="1.1" id="Layer_1" xmlns="http://www.w3.org/2000/svg" xmlns:xlink="http://www.w3.org/1999/xlink" x="0px" y="0px"
	 viewBox="0 0 512 512" style="enable-background:new 0 0 512 512;" xml:space="preserve">
<path style="fill:#E2E5E7;" d="M128,0c-17.6,0-32,14.4-32,32v448c0,17.6,14.4,32,32,32h320c17.6,0,32-14.4,32-32V128L352,0H128z"/>
<path style="fill:#B0B7BD;" d="M384,128h96L352,0v96C352,113.6,366.4,128,384,128z"/>
<polygon style="fill:#CAD1D8;" points="480,224 384,128 480,128 "/>
<path style="fill:#F15642;" d="M416,416c0,8.8-7.2,16-16,16H48c-8.8,0-16-7.2-16-16V256c0-8.8,7.2-16,16-16h352c8.8,0,16,7.2,16,16
	V416z"/>
<g>
	<path style="fill:#FFFFFF;" d="M98.128,314.672c2.944-24.832,40.416-29.296,58.064-15.728c8.704,7.024-0.496,18.16-8.192,12.528
		c-9.456-6-30.96-8.816-33.648,4.464c-3.456,20.992,52.208,8.976,51.296,43.008c-0.896,32.496-47.968,33.248-65.632,18.672
		c-4.224-3.456-4.096-9.072-1.776-12.544c3.312-3.312,7.024-4.464,11.376-0.88c10.496,7.152,37.488,12.528,39.408-5.648
		C147.376,339.632,94.16,351.008,98.128,314.672z"/>
	<path style="fill:#FFFFFF;" d="M265.488,369.424l2.048,2.416c8.432,7.68-2.56,20.224-11.136,12.16l-4.336-3.44
		c-6.656,4.592-14.448,6.784-24.816,6.784c-22.512,0-48.24-15.504-48.24-46.976s25.584-47.456,48.24-47.456
		c23.776,0,47.072,15.984,47.072,47.456C274.32,352.528,271.232,361.504,265.488,369.424z M257.792,340.368
		c0-20.336-15.984-30.688-30.56-30.688c-15.728,0-31.216,10.336-31.216,30.688c0,15.504,13.168,30.208,31.216,30.208
		c4.592,0,9.072-1.152,13.552-2.304l-14.576-13.44c-6.784-8.192,3.968-19.84,12.528-12.288l14.464,14.448
		C256.384,352.528,257.792,347.024,257.792,340.368z"/>
	<path style="fill:#FFFFFF;" d="M293.168,303.152c0-4.224,3.584-7.808,8.064-7.808c4.096,0,7.552,3.6,7.552,7.808v64.096h34.8
		c12.528,0,12.8,16.752,0,16.752h-42.336c-4.48,0-8.064-3.184-8.064-7.792v-73.056H293.168z"/>
</g>
<path style="fill:#CAD1D8;" d="M400,432H96v16h304c8.8,0,16-7.2,16-16v-16C416,424.8,408.8,432,400,432z"/>
<g>
</g>
<g>
</g>
<g>
</g>
<g>
</g>
<g>
</g>
<g>
</g>
<g>
</g>
<g>
</g>
<g>
</g>
<g>
</g>
<g>
</g>
<g>
</g>
<g>
</g>
<g>
</g>
<g>
</g>
</svg>
