<?xml version="1.0" encoding="iso-8859-1"?>
<!-- Generator: Adobe Illustrator 19.0.0, SVG Export Plug-In . SVG Version: 6.00 Build 0)  -->
<svg version="1.1" id="Layer_1" xmlns="http://www.w3.org/2000/svg" xmlns:xlink="http://www.w3.org/1999/xlink" x="0px" y="0px"
	 viewBox="0 0 512 512" style="enable-background:new 0 0 512 512;" xml:space="preserve">
<path style="fill:#E2E5E7;" d="M128,0c-17.6,0-32,14.4-32,32v448c0,17.6,14.4,32,32,32h320c17.6,0,32-14.4,32-32V128L352,0H128z"/>
<path style="fill:#B0B7BD;" d="M384,128h96L352,0v96C352,113.6,366.4,128,384,128z"/>
<polygon style="fill:#CAD1D8;" points="480,224 384,128 480,128 "/>
<path style="fill:#A066AA;" d="M416,416c0,8.8-7.2,16-16,16H48c-8.8,0-16-7.2-16-16V256c0-8.8,7.2-16,16-16h352c8.8,0,16,7.2,16,16
	V416z"/>
<g>
	<path style="fill:#FFFFFF;" d="M155.824,311.472H133.44c-11.12,0-11.12-16.368,0-16.368h60.512c11.376,0,11.376,16.368,0,16.368
		H172.72v64.592c0,11.12-16.896,11.392-16.896,0C155.824,376.064,155.824,311.472,155.824,311.472z"/>
	<path style="fill:#FFFFFF;" d="M217.536,303.152c0-10.496,16.896-10.88,16.896,0v73.024c0,10.624-16.896,10.88-16.896,0V303.152z"
		/>
	<path style="fill:#FFFFFF;" d="M273.712,312.096v20.336h32.608c4.608,0,9.216,4.608,9.216,9.088c0,4.224-4.608,7.664-9.216,7.664
		h-32.608v26.864c0,4.48-3.2,7.936-7.68,7.936c-5.632,0-9.072-3.456-9.072-7.936v-72.656c0-4.608,3.456-7.936,9.072-7.936h44.912
		c5.632,0,8.96,3.328,8.96,7.936c0,4.096-3.328,8.688-8.96,8.688h-37.232V312.096z"/>
</g>
<path style="fill:#CAD1D8;" d="M400,432H96v16h304c8.8,0,16-7.2,16-16v-16C416,424.8,408.8,432,400,432z"/>
<g>
</g>
<g>
</g>
<g>
</g>
<g>
</g>
<g>
</g>
<g>
</g>
<g>
</g>
<g>
</g>
<g>
</g>
<g>
</g>
<g>
</g>
<g>
</g>
<g>
</g>
<g>
</g>
<g>
</g>
</svg>
