<?xml version="1.0" encoding="iso-8859-1"?>
<!-- Generator: Adobe Illustrator 19.0.0, SVG Export Plug-In . SVG Version: 6.00 Build 0)  -->
<svg version="1.1" id="Layer_1" xmlns="http://www.w3.org/2000/svg" xmlns:xlink="http://www.w3.org/1999/xlink" x="0px" y="0px"
	 viewBox="0 0 512 512" style="enable-background:new 0 0 512 512;" xml:space="preserve">
<path style="fill:#E2E5E7;" d="M128,0c-17.6,0-32,14.4-32,32v448c0,17.6,14.4,32,32,32h320c17.6,0,32-14.4,32-32V128L352,0H128z"/>
<path style="fill:#B0B7BD;" d="M384,128h96L352,0v96C352,113.6,366.4,128,384,128z"/>
<polygon style="fill:#CAD1D8;" points="480,224 384,128 480,128 "/>
<path style="fill:#84BD5A;" d="M416,416c0,8.8-7.2,16-16,16H48c-8.8,0-16-7.2-16-16V256c0-8.8,7.2-16,16-16h352c8.8,0,16,7.2,16,16
	V416z"/>
<g>
	<path style="fill:#FFFFFF;" d="M153.216,353.44l19.056-52.72c3.824-10.336,19.312-5.504,15.472,5.632l-25.328,68.72
		c-2.304,7.28-4.464,9.472-8.832,9.472c-4.592,0-6.016-2.832-8.56-7.44l-22.256-50.544l-21.232,49.776
		c-2.32,5.36-4.464,8.432-9.088,8.432c-4.464,0-6.784-3.072-8.816-8.704l-24.816-69.728c-3.84-11.504,12.4-15.712,15.712-5.632
		l18.944,52.72l22.656-52.72c3.056-7.792,11.12-8.192,14.432-0.368L153.216,353.44z"/>
	<path style="fill:#FFFFFF;" d="M219.744,327.84v47.344c0,5.632-4.608,8.816-9.2,8.816c-4.096,0-7.68-3.184-7.68-8.816v-72.032
		c0-6.656,5.648-8.832,7.68-8.832c3.696,0,5.872,2.176,8.048,4.608l28.16,38l29.152-39.408c4.24-5.248,14.592-3.2,14.592,5.632
		v72.032c0,5.632-3.6,8.816-7.68,8.816c-4.592,0-8.192-3.184-8.192-8.816V327.84l-21.232,26.88c-4.592,5.632-10.352,5.632-14.576,0
		L219.744,327.84z"/>
	<path style="fill:#FFFFFF;" d="M339.776,378.256L306,307.504c-4.992-10.096,10.112-18.4,15.728-7.792l11.392,25.696l14.704,33.776
		l14.448-33.776l11.392-25.696c5.12-9.728,19.952-3.584,15.616,7.04l-32.624,71.504C353.712,386.32,344.64,388.224,339.776,378.256z
		"/>
</g>
<path style="fill:#CAD1D8;" d="M400,432H96v16h304c8.8,0,16-7.2,16-16v-16C416,424.8,408.8,432,400,432z"/>
<g>
</g>
<g>
</g>
<g>
</g>
<g>
</g>
<g>
</g>
<g>
</g>
<g>
</g>
<g>
</g>
<g>
</g>
<g>
</g>
<g>
</g>
<g>
</g>
<g>
</g>
<g>
</g>
<g>
</g>
</svg>
