<?xml version="1.0" encoding="iso-8859-1"?>
<!-- Generator: Adobe Illustrator 19.0.0, SVG Export Plug-In . SVG Version: 6.00 Build 0)  -->
<svg version="1.1" id="Layer_1" xmlns="http://www.w3.org/2000/svg" xmlns:xlink="http://www.w3.org/1999/xlink" x="0px" y="0px"
	 viewBox="0 0 512 512" style="enable-background:new 0 0 512 512;" xml:space="preserve">
<path style="fill:#E2E5E7;" d="M128,0c-17.6,0-32,14.4-32,32v448c0,17.6,14.4,32,32,32h320c17.6,0,32-14.4,32-32V128L352,0H128z"/>
<path style="fill:#B0B7BD;" d="M384,128h96L352,0v96C352,113.6,366.4,128,384,128z"/>
<polygon style="fill:#CAD1D8;" points="480,224 384,128 480,128 "/>
<path style="fill:#50BEE8;" d="M416,416c0,8.8-7.2,16-16,16H48c-8.8,0-16-7.2-16-16V256c0-8.8,7.2-16,16-16h352c8.8,0,16,7.2,16,16
	V416z"/>
<g>
	<path style="fill:#FFFFFF;" d="M131.28,326.176l22.272-27.888c6.64-8.688,19.568,2.432,12.288,10.752
		c-7.664,9.088-15.728,18.944-23.424,29.024l26.112,32.496c7.024,9.6-7.04,18.816-13.952,9.344l-23.536-30.192l-23.152,30.832
		c-6.528,9.328-20.992-1.152-13.68-9.856l25.712-32.624c-8.064-10.096-15.872-19.936-23.664-29.024
		c-8.064-9.6,6.912-19.44,12.784-10.48L131.28,326.176z"/>
	<path style="fill:#FFFFFF;" d="M201.264,327.84v47.328c0,5.648-4.608,8.832-9.2,8.832c-4.096,0-7.68-3.184-7.68-8.832v-72.016
		c0-6.656,5.648-8.848,7.68-8.848c3.696,0,5.872,2.192,8.048,4.624l28.16,37.984l29.152-39.408c4.24-5.232,14.592-3.2,14.592,5.648
		v72.016c0,5.648-3.584,8.832-7.664,8.832c-4.608,0-8.192-3.184-8.192-8.832V327.84l-21.248,26.864
		c-4.592,5.648-10.352,5.648-14.576,0L201.264,327.84z"/>
	<path style="fill:#FFFFFF;" d="M294.288,303.152c0-4.224,3.584-7.808,8.064-7.808c4.096,0,7.552,3.6,7.552,7.808v64.096h34.8
		c12.528,0,12.8,16.752,0,16.752h-42.336c-4.48,0-8.064-3.184-8.064-7.808v-73.04H294.288z"/>
</g>
<path style="fill:#CAD1D8;" d="M400,432H96v16h304c8.8,0,16-7.2,16-16v-16C416,424.8,408.8,432,400,432z"/>
<g>
</g>
<g>
</g>
<g>
</g>
<g>
</g>
<g>
</g>
<g>
</g>
<g>
</g>
<g>
</g>
<g>
</g>
<g>
</g>
<g>
</g>
<g>
</g>
<g>
</g>
<g>
</g>
<g>
</g>
</svg>
